<?xml version="1.0" standalone="no"?>
<!DOCTYPE svg PUBLIC "-//W3C//DTD SVG 20010904//EN"
 "http://www.w3.org/TR/2001/REC-SVG-20010904/DTD/svg10.dtd">
<svg version="1.0" xmlns="http://www.w3.org/2000/svg"
 width="1230.000000pt" height="1046.000000pt" viewBox="0 0 1230.000000 1046.000000"
 preserveAspectRatio="xMidYMid meet">

<g transform="translate(0.000000,1046.000000) scale(0.100000,-0.100000)"
fill="#000000" stroke="none">
<path d="M5805 9384 c-245 -15 -411 -37 -685 -90 -47 -9 -106 -20 -133 -24
-26 -5 -62 -13 -80 -19 -17 -5 -57 -16 -87 -24 -152 -43 -190 -55 -405 -135
-70 -25 -292 -122 -415 -180 -60 -29 -118 -59 -295 -156 -228 -125 -580 -387
-800 -596 -134 -127 -332 -348 -436 -485 -64 -85 -305 -443 -366 -545 -87
-145 -230 -420 -258 -495 -10 -27 -31 -77 -46 -110 -39 -85 -151 -425 -193
-585 -96 -370 -136 -684 -143 -1125 -5 -325 1 -423 48 -740 23 -157 64 -339
99 -435 4 -14 18 -59 30 -100 23 -79 104 -301 146 -404 28 -65 146 -305 184
-371 12 -22 36 -65 52 -95 84 -154 244 -399 367 -560 219 -288 625 -697 848
-855 65 -46 333 -228 355 -240 9 -5 61 -37 115 -70 117 -71 100 -62 293 -163
146 -76 274 -135 365 -168 273 -99 472 -161 605 -189 329 -68 500 -94 765
-116 166 -14 548 -15 685 -1 194 20 416 51 505 71 22 6 74 17 115 26 280 59
486 122 790 241 223 88 470 211 635 319 145 94 321 210 325 215 3 3 28 20 55
39 152 105 403 325 530 467 74 83 183 202 195 214 38 38 184 231 316 419 155
219 402 683 481 905 14 39 31 85 38 101 18 43 57 155 66 190 4 17 23 91 44
165 20 74 40 155 45 180 5 25 16 81 24 125 48 240 68 486 68 835 1 385 -26
677 -81 880 -6 19 -17 69 -26 110 -20 94 -42 180 -92 350 -19 64 -85 249 -120
335 -46 114 -161 353 -218 455 -23 41 -53 95 -67 120 -75 134 -120 204 -266
415 -269 387 -654 782 -987 1015 -160 112 -377 256 -450 298 -69 40 -376 188
-480 232 -55 23 -113 47 -130 54 -111 48 -357 127 -490 156 -22 5 -69 16 -105
25 -290 69 -500 99 -850 120 -135 8 -254 14 -265 13 -11 0 -110 -7 -220 -14z
m635 -414 c232 -22 348 -39 530 -77 239 -50 557 -147 710 -216 345 -155 517
-249 775 -425 74 -51 327 -250 385 -304 14 -13 61 -54 104 -92 85 -76 306
-323 404 -453 73 -96 245 -354 289 -433 17 -30 41 -73 54 -95 12 -22 42 -78
67 -125 24 -47 60 -113 79 -148 19 -35 33 -65 31 -67 -1 -1 -525 -4 -1163 -6
l-1160 -4 -60 31 c-138 70 -180 112 -265 262 -33 58 -37 62 -70 61 -19 0 -55
-4 -80 -9 -73 -15 -164 -36 -180 -42 -8 -3 -60 -19 -115 -36 -108 -33 -184
-45 -202 -34 -24 15 -173 313 -173 345 0 14 -4 37 -10 51 -8 21 -16 26 -45 26
-51 0 -209 -28 -285 -51 -71 -21 -91 -32 -176 -99 -51 -40 -63 -45 -108 -45
-35 0 -69 9 -108 27 -115 55 -392 127 -431 112 -8 -3 -19 -15 -25 -27 -5 -12
-45 -70 -88 -129 -44 -58 -86 -116 -94 -129 -29 -43 -82 -98 -100 -104 -11 -3
-50 4 -87 16 -85 27 -166 46 -268 65 -44 8 -102 18 -130 23 -49 9 -50 9 -82
-27 -18 -21 -32 -43 -33 -50 0 -7 -31 -44 -70 -82 -76 -77 -90 -81 -156 -51
-48 22 -161 97 -171 115 -5 7 -17 16 -28 20 -19 8 -181 33 -275 43 l-45 5 -93
-106 c-51 -57 -107 -114 -125 -124 -58 -36 -277 -52 -711 -52 -426 0 -421 -1
-384 60 11 19 35 73 53 121 19 48 52 114 74 147 23 33 41 63 41 67 0 4 20 37
44 74 24 36 60 93 81 126 21 33 53 78 71 101 19 23 34 45 34 51 0 5 21 36 48
69 26 32 74 95 107 139 56 74 323 351 425 441 50 44 253 206 345 275 108 82
361 230 560 327 292 142 376 178 560 240 246 82 413 122 660 157 61 9 135 20
165 25 30 5 116 14 190 20 74 6 137 13 140 16 8 9 441 -3 570 -16z m3090
-2660 c182 -12 343 -28 413 -42 48 -9 60 -16 72 -39 8 -15 15 -38 15 -51 0
-13 9 -52 20 -88 11 -36 20 -67 20 -69 0 -6 -64 6 -120 24 -63 19 -161 40
-270 57 -95 15 -538 14 -645 -1 -301 -42 -391 -62 -730 -157 -88 -24 -176 -49
-195 -54 -19 -5 -60 -14 -90 -20 -30 -5 -89 -17 -130 -25 -280 -58 -433 -76
-646 -77 -225 -1 -419 24 -734 92 -25 6 -72 14 -105 19 -33 5 -118 19 -189 30
-188 31 -265 27 -251 -11 4 -9 0 -32 -9 -51 -18 -44 -14 -48 100 -105 106 -53
340 -137 464 -167 30 -7 102 -25 160 -40 251 -65 381 -79 655 -71 262 7 381
23 575 76 80 22 170 47 200 56 30 8 71 19 90 24 19 5 78 21 130 36 143 39 235
62 340 85 52 11 124 27 160 35 62 14 109 22 246 44 158 26 627 4 774 -36 30
-8 73 -20 95 -26 22 -6 81 -24 131 -40 l91 -29 12 -97 c7 -53 15 -116 18 -140
l5 -43 -28 7 c-16 4 -37 11 -47 16 -21 11 -128 38 -242 62 -44 9 -96 21 -115
26 -61 16 -310 35 -450 35 -120 -1 -243 -13 -435 -44 -55 -9 -125 -26 -275
-67 -30 -8 -73 -19 -95 -24 -48 -10 -188 -56 -230 -75 -104 -46 -421 -133
-573 -156 -37 -6 -179 -13 -317 -16 -283 -5 -368 3 -611 63 -125 30 -306 89
-356 115 -10 5 -22 9 -28 9 -27 0 -284 135 -390 205 -74 49 -248 138 -300 154
-107 32 -238 78 -335 116 -99 39 -163 61 -250 86 -119 33 -534 45 -740 21
-144 -17 -327 -55 -465 -96 -30 -10 -95 -28 -145 -41 -49 -13 -115 -32 -145
-41 -269 -80 -422 -110 -648 -130 -167 -15 -196 -15 -347 0 -171 17 -246 31
-381 71 -100 31 -237 97 -257 125 -17 25 -14 44 32 179 18 52 38 126 44 165
l12 71 540 3 c342 2 652 -1 845 -10 410 -17 752 -16 905 5 320 43 619 44 2065
7 509 -14 1862 -13 2020 0 69 6 170 17 225 25 171 24 204 27 405 34 287 11
293 11 440 1z m-4630 -680 c305 -36 426 -72 720 -217 107 -53 204 -100 215
-104 29 -11 155 -67 188 -84 16 -8 33 -15 38 -15 8 0 45 -16 184 -81 40 -18
219 -85 260 -96 11 -3 25 -9 30 -13 6 -4 44 -17 85 -29 41 -13 86 -26 100 -31
14 -5 57 -16 95 -25 39 -9 86 -20 105 -25 185 -46 635 -47 835 -1 125 29 200
47 390 96 28 7 160 49 295 94 307 101 400 124 570 142 180 18 397 22 505 10
188 -23 352 -52 435 -76 30 -9 69 -20 85 -24 28 -8 81 -30 165 -68 19 -9 37
-18 39 -20 4 -3 2 -266 -2 -270 -2 -1 -61 18 -132 42 -280 93 -435 123 -691
131 -358 11 -572 -20 -919 -134 -146 -48 -363 -117 -434 -138 -38 -12 -332
-64 -476 -85 -89 -13 -358 -8 -495 9 -249 31 -474 83 -670 154 -47 17 -89 35
-95 38 -5 4 -35 15 -65 25 -30 10 -84 31 -120 47 -84 38 -95 43 -155 68 -27
12 -108 51 -178 86 -71 36 -152 74 -180 85 -29 11 -61 23 -72 28 -98 43 -278
103 -380 128 -169 41 -229 47 -475 48 -229 0 -327 -8 -445 -34 -22 -6 -74 -17
-115 -26 -67 -15 -226 -62 -435 -130 -38 -12 -97 -30 -130 -40 -33 -9 -80 -23
-105 -30 -42 -12 -113 -28 -250 -55 -172 -34 -562 -36 -735 -4 -272 51 -566
142 -604 188 -12 14 -11 24 2 69 8 28 21 89 28 135 7 45 16 82 19 82 11 0 72
-21 107 -36 17 -8 37 -14 45 -14 8 0 18 -4 24 -9 16 -15 194 -63 299 -81 167
-28 289 -40 420 -40 156 0 228 8 455 51 159 30 209 42 340 83 126 40 383 110
510 141 30 7 62 15 70 19 17 6 144 25 245 36 108 11 360 11 455 0z m120 -639
c238 -53 351 -83 415 -111 11 -5 54 -20 96 -34 79 -25 284 -111 424 -176 123
-57 139 -64 305 -125 85 -31 164 -61 175 -65 91 -34 308 -93 415 -114 160 -30
209 -37 335 -46 120 -8 498 3 534 15 8 3 46 10 85 15 93 13 224 43 366 85 30
9 71 21 92 26 20 5 130 39 245 77 186 61 254 79 413 113 107 22 303 30 488 19
102 -6 188 -13 192 -15 3 -2 44 -9 90 -15 174 -24 489 -120 537 -164 10 -9 8
-35 -7 -125 -11 -62 -20 -117 -20 -122 0 -15 -25 -10 -85 17 -51 22 -117 45
-210 74 -44 13 -189 46 -275 61 -104 19 -567 19 -670 0 -113 -21 -330 -77
-410 -106 -81 -29 -303 -102 -375 -124 -442 -132 -871 -153 -1350 -67 -196 36
-518 139 -722 232 -28 13 -55 24 -58 24 -4 0 -53 23 -109 51 -175 88 -388 173
-546 219 -41 12 -86 25 -100 30 -35 12 -150 36 -245 52 -109 18 -583 18 -685
0 -163 -29 -251 -52 -530 -142 -412 -132 -501 -155 -740 -187 -252 -34 -596
-14 -810 47 -19 6 -91 26 -160 46 -69 20 -143 41 -165 46 -22 6 -44 15 -49 19
-6 5 -18 9 -27 9 -23 0 -29 39 -29 196 0 142 3 149 48 125 9 -5 42 -19 72 -31
30 -11 64 -25 75 -29 100 -42 167 -62 280 -85 44 -9 96 -21 115 -26 84 -23
313 -33 515 -22 191 11 210 14 417 66 119 30 290 79 380 109 315 106 469 146
653 171 67 9 562 -1 615 -13z m-35 -596 c39 -7 113 -21 165 -30 196 -34 444
-115 674 -220 68 -31 282 -120 361 -149 33 -13 73 -28 88 -35 16 -6 32 -11 37
-11 5 0 26 -7 47 -16 21 -9 47 -21 58 -25 53 -23 337 -97 535 -139 79 -18 581
-25 705 -11 158 18 226 29 285 44 30 9 100 27 155 42 104 28 273 83 290 95 25
17 190 72 295 98 190 48 209 51 373 67 162 16 188 15 462 -15 243 -27 370 -54
521 -112 112 -43 121 -50 104 -85 -7 -16 -19 -53 -27 -83 -7 -30 -18 -70 -23
-88 -4 -19 -11 -36 -14 -40 -8 -7 -73 7 -171 37 -165 50 -486 101 -640 101
-92 0 -277 -20 -375 -41 -187 -39 -322 -76 -405 -108 -44 -18 -314 -101 -370
-115 -33 -8 -80 -20 -105 -26 -25 -6 -70 -15 -100 -20 -30 -4 -84 -13 -120
-19 -182 -29 -245 -33 -455 -28 -208 4 -323 14 -425 36 -25 6 -83 18 -130 26
-114 22 -377 101 -465 140 -16 8 -82 34 -145 60 -63 25 -124 50 -135 55 -11 5
-45 19 -75 30 -30 11 -64 25 -75 30 -11 5 -74 30 -140 55 -66 26 -134 53 -152
61 -17 8 -40 14 -50 14 -11 0 -23 3 -27 7 -16 17 -232 79 -376 108 -91 19
-406 35 -550 29 -119 -6 -261 -27 -364 -54 -39 -10 -82 -22 -96 -25 -78 -21
-186 -54 -355 -110 -104 -35 -224 -73 -265 -85 -41 -12 -86 -25 -100 -30 -30
-11 -91 -23 -260 -52 -106 -18 -166 -21 -390 -21 -274 -1 -401 12 -595 59 -38
9 -99 22 -135 28 l-64 12 -14 45 c-13 41 -30 113 -52 219 -18 84 -18 85 13 82
15 -1 49 -12 75 -24 69 -30 185 -59 397 -100 95 -18 149 -21 395 -22 203 -1
302 3 345 12 185 41 304 70 390 94 63 17 308 98 325 107 9 5 31 12 50 16 19 4
40 11 45 15 6 4 26 11 45 15 19 4 41 11 50 15 18 10 110 34 200 54 236 52 571
65 755 31z m-20 -581 c61 -8 139 -20 175 -28 60 -14 90 -22 233 -60 40 -11
339 -113 502 -171 26 -9 47 -18 127 -54 37 -17 121 -49 185 -72 65 -22 136
-49 158 -59 97 -43 177 -70 310 -104 198 -51 329 -74 525 -92 183 -16 274 -14
475 11 212 27 436 78 615 140 36 13 112 37 170 55 58 18 139 43 180 57 204 66
455 98 720 90 205 -6 280 -18 465 -75 50 -15 175 -87 175 -101 0 -4 -18 -32
-41 -62 -45 -60 -79 -121 -79 -142 0 -22 -28 -41 -42 -30 -16 12 -146 47 -253
67 -162 32 -448 30 -605 -4 -25 -5 -85 -17 -135 -26 -144 -27 -230 -49 -391
-102 -336 -111 -637 -157 -1034 -157 -310 0 -482 21 -745 90 -55 15 -113 30
-130 34 -38 10 -124 39 -150 50 -11 5 -45 19 -75 31 -30 11 -64 25 -75 29 -11
5 -38 15 -60 24 -150 57 -268 103 -315 125 -328 148 -696 245 -1025 272 -130
10 -313 -2 -450 -30 -157 -32 -202 -43 -225 -50 -14 -5 -59 -18 -100 -30 -41
-12 -124 -40 -185 -62 -60 -22 -139 -50 -175 -63 -122 -45 -224 -75 -335 -99
-314 -67 -409 -77 -783 -84 -280 -6 -325 -5 -337 8 -27 30 -107 200 -112 238
-4 32 -1 43 18 62 22 20 30 22 109 16 47 -3 117 -10 155 -15 279 -41 410 -39
715 15 195 34 332 65 435 99 39 12 99 32 135 43 81 26 223 78 247 90 33 18
167 60 258 81 50 12 106 25 125 30 37 10 183 29 260 35 74 5 268 -5 385 -20z
m-80 -539 c202 -24 520 -95 620 -139 85 -38 315 -126 329 -126 8 0 18 -4 21
-10 3 -5 14 -10 23 -10 9 0 29 -6 43 -14 14 -7 39 -16 55 -20 16 -4 81 -31
144 -61 133 -61 166 -76 235 -100 28 -10 55 -22 60 -26 22 -15 391 -109 485
-123 25 -4 65 -11 90 -16 52 -11 264 -28 467 -39 78 -4 147 -12 155 -18 65
-53 595 -114 858 -98 318 19 526 37 610 54 121 24 230 35 268 26 20 -4 34 -16
42 -35 11 -26 9 -35 -13 -73 -35 -60 -83 -88 -212 -127 -313 -93 -527 -130
-865 -150 -96 -5 -193 -12 -215 -15 -40 -5 -527 21 -555 30 -9 3 -67 12 -130
20 -201 26 -365 53 -465 78 -96 24 -153 40 -330 93 -27 8 -63 19 -80 24 -37
10 -163 57 -190 69 -49 23 -114 51 -120 51 -4 0 -93 42 -199 94 -105 52 -231
110 -281 129 -49 20 -108 44 -130 55 -256 125 -572 192 -901 192 -260 0 -379
-24 -809 -165 -88 -29 -191 -61 -230 -73 -38 -11 -122 -39 -185 -62 -317 -113
-468 -140 -690 -121 -116 10 -202 34 -250 69 -36 27 -69 99 -69 154 -1 78 6
81 303 89 316 9 455 28 651 89 17 5 64 19 105 31 41 11 113 34 160 51 83 29
139 47 345 110 55 16 109 34 120 38 11 5 29 10 40 13 11 3 56 15 100 27 71 20
289 45 415 49 25 0 104 -6 175 -14z"/>
<path d="M4480 8063 c-199 -38 -313 -161 -327 -354 -14 -210 56 -362 205 -446
65 -37 70 -38 167 -37 86 0 108 3 155 25 75 35 208 144 210 172 0 4 11 25 25
47 14 22 32 59 40 82 17 49 20 184 5 193 -5 3 -10 13 -10 21 0 61 -118 207
-198 244 -91 43 -207 66 -272 53z"/>
<path d="M8638 7280 c-41 -22 -76 -62 -84 -97 -7 -27 17 -97 44 -129 32 -38
70 -56 118 -56 77 0 134 57 141 139 5 63 -19 110 -72 140 -49 28 -98 28 -147
3z"/>
<path d="M7467 7269 c-90 -47 -89 -197 2 -244 17 -8 48 -15 69 -15 34 0 45 6
81 45 34 37 41 51 41 86 0 118 -94 180 -193 128z"/>
</g>
</svg>
